<?xml version="1.0" encoding="UTF-8"?>
<!DOCTYPE svg PUBLIC "-//W3C//DTD SVG 1.1//EN" "http://www.w3.org/Graphics/SVG/1.1/DTD/svg11.dtd">
<!-- Creator: CorelDRAW 2021 (64-Bit) -->
<svg xmlns="http://www.w3.org/2000/svg" xml:space="preserve" width="16.8392mm" height="13.7635mm" version="1.1" style="shape-rendering:geometricPrecision; text-rendering:geometricPrecision; image-rendering:optimizeQuality; fill-rule:evenodd; clip-rule:evenodd"
viewBox="0 0 271.58 221.98"
 xmlns:xlink="http://www.w3.org/1999/xlink"
 xmlns:xodm="http://www.corel.com/coreldraw/odm/2003">
 <defs>
  <style type="text/css">
   <![CDATA[
    .fil1 {fill:white}
    .fil0 {fill:white;fill-rule:nonzero}
   ]]>
  </style>
 </defs>
 <g id="Layer_x0020_1">
  <metadata id="CorelCorpID_0Corel-Layer"/>
  <g id="_2833221657648">
   <path class="fil0" d="M68.28 211.35c-3.19,8.48 -12.65,12.76 -21.13,9.57 -8.48,-3.19 -12.76,-12.65 -9.57,-21.13l71.15 -188.67 73.25 188.54c3.26,8.44 -0.94,17.93 -9.38,21.2 -8.44,3.26 -17.93,-0.94 -21.19,-9.38l-42.21 -108.63 -21.12 56.01 16.41 0c6.32,0 11.48,5.17 11.48,11.49 0,6.32 -5.16,11.49 -11.48,11.49l-25.07 0 -11.13 29.51z"/>
   <path class="fil0" d="M127.09 11.13l53.84 0c15.13,0 28.88,6.18 38.84,16.14 9.96,9.96 16.14,23.71 16.14,38.84 0,15.13 -6.18,28.88 -16.14,38.84 -10.76,10.75 -22.1,15.87 -37.16,16.12l-0.05 0.02c-6.26,0 -11.38,-5.12 -11.38,-11.38 0,-5.89 4.53,-10.76 10.27,-11.33l0 -0 -0 -0.05c8.85,0 16.4,-3.63 22.24,-9.47 5.84,-5.84 9.47,-13.9 9.47,-22.75 0,-8.85 -3.63,-16.9 -9.47,-22.75 -5.84,-5.84 -13.9,-9.47 -22.75,-9.47l-45.18 0 -8.66 -22.76z"/>
   <circle class="fil1" cx="245.22" cy="170.87" r="26.37"/>
   <path class="fil1" d="M38.56 0c-21.3,0 -38.56,17.26 -38.56,38.56 0,8.24 2.59,15.88 7,22.15 4.58,-9.99 14.66,-16.92 26.37,-16.92 14.76,0 26.94,11.03 28.76,25.29 9.12,-7.05 14.99,-18.1 14.99,-30.52 0,-21.3 -17.26,-38.56 -38.56,-38.56z"/>
   <circle class="fil1" cx="33.37" cy="72.79" r="22.97"/>
  </g>
 </g>
</svg>
